<svg xmlns="http://www.w3.org/2000/svg">

    <defs>
        <style><![CDATA[
        .sprite { display: none; }
        .sprite:target { display: inline; }
        ]]></style>
    </defs>

    <g class="sprite" id="bag" width="15.75px" height="18px" viewBox="0 0 15.75 18" version="1.1" xmlns="http://www.w3.org/2000/svg" xmlns:xlink="http://www.w3.org/1999/xlink">
        <title>Shape</title>
        <g id="Page-1" stroke="none" stroke-width="1" fill="none" fill-rule="evenodd">
            <g id="jot-ecomm-website-home" transform="translate(-1409, -71)" fill="#ACACAC" fill-rule="nonzero">
                <g id="Sign-In-/-Shopping-Bag" transform="translate(1307, 70)">
                    <g id="Group-2-Copy" transform="translate(102, 0)">
                        <g id="bag-shopping-regular" transform="translate(0, 1)">
                            <path d="M5.625,3.9375 L5.625,5.625 L10.125,5.625 L10.125,3.9375 C10.125,2.69648437 9.11601562,1.6875 7.875,1.6875 C6.63398437,1.6875 5.625,2.69648437 5.625,3.9375 Z M3.9375,7.3125 L1.6875,7.3125 L1.6875,14.625 C1.6875,15.5566406 2.44335938,16.3125 3.375,16.3125 L12.375,16.3125 C13.3066406,16.3125 14.0625,15.5566406 14.0625,14.625 L14.0625,7.3125 L11.8125,7.3125 L11.8125,9.28125 C11.8125,9.74882812 11.4363281,10.125 10.96875,10.125 C10.5011719,10.125 10.125,9.74882812 10.125,9.28125 L10.125,7.3125 L5.625,7.3125 L5.625,9.28125 C5.625,9.74882812 5.24882813,10.125 4.78125,10.125 C4.31367187,10.125 3.9375,9.74882812 3.9375,9.28125 L3.9375,7.3125 Z M3.9375,5.625 L3.9375,3.9375 C3.9375,1.76132813 5.69882812,0 7.875,0 C10.0511719,0 11.8125,1.76132813 11.8125,3.9375 L11.8125,5.625 L14.0625,5.625 C14.9941406,5.625 15.75,6.38085938 15.75,7.3125 L15.75,14.625 C15.75,16.4882812 14.2382812,18 12.375,18 L3.375,18 C1.51171875,18 0,16.4882812 0,14.625 L0,7.3125 C0,6.38085938 0.755859375,5.625 1.6875,5.625 L3.9375,5.625 Z" id="Shape"></path>
                        </g>
                    </g>
                </g>
            </g>
        </g>
    </g>

    <g class="sprite" id="bag-hover" width="15.75px" height="18px" viewBox="0 0 15.75 18" version="1.1" xmlns="http://www.w3.org/2000/svg" xmlns:xlink="http://www.w3.org/1999/xlink">
    <title>Shape</title>
        <g id="Page-1" stroke="none" stroke-width="1" fill="none" fill-rule="evenodd">
            <g id="jot-ecomm-website-home" transform="translate(-1409, -71)" fill="#000000" fill-rule="nonzero">
                <g id="Sign-In-/-Shopping-Bag" transform="translate(1307, 70)">
                    <g id="Group-2-Copy" transform="translate(102, 0)">
                        <g id="bag-shopping-regular" transform="translate(0, 1)">
                            <path d="M5.625,3.9375 L5.625,5.625 L10.125,5.625 L10.125,3.9375 C10.125,2.69648437 9.11601562,1.6875 7.875,1.6875 C6.63398437,1.6875 5.625,2.69648437 5.625,3.9375 Z M3.9375,7.3125 L1.6875,7.3125 L1.6875,14.625 C1.6875,15.5566406 2.44335938,16.3125 3.375,16.3125 L12.375,16.3125 C13.3066406,16.3125 14.0625,15.5566406 14.0625,14.625 L14.0625,7.3125 L11.8125,7.3125 L11.8125,9.28125 C11.8125,9.74882812 11.4363281,10.125 10.96875,10.125 C10.5011719,10.125 10.125,9.74882812 10.125,9.28125 L10.125,7.3125 L5.625,7.3125 L5.625,9.28125 C5.625,9.74882812 5.24882813,10.125 4.78125,10.125 C4.31367187,10.125 3.9375,9.74882812 3.9375,9.28125 L3.9375,7.3125 Z M3.9375,5.625 L3.9375,3.9375 C3.9375,1.76132813 5.69882812,0 7.875,0 C10.0511719,0 11.8125,1.76132813 11.8125,3.9375 L11.8125,5.625 L14.0625,5.625 C14.9941406,5.625 15.75,6.38085938 15.75,7.3125 L15.75,14.625 C15.75,16.4882812 14.2382812,18 12.375,18 L3.375,18 C1.51171875,18 0,16.4882812 0,14.625 L0,7.3125 C0,6.38085938 0.755859375,5.625 1.6875,5.625 L3.9375,5.625 Z" id="Shape"></path>
                        </g>
                    </g>
                </g>
            </g>
        </g>
    </g>

    <g class="sprite" id="jot-logo" viewBox="0 0 83.9514893 43.9688826" version="1.1" xmlns="http://www.w3.org/2000/svg" xmlns:xlink="http://www.w3.org/1999/xlink">
    <title>Logo</title>
        <g  stroke="none" stroke-width="1" fill="none" fill-rule="evenodd">
            <g id="jot-ecomm-website-home" transform="translate(-758, -79)" fill="#000000">
                <g id="Logo" transform="translate(758, 79)" width="83.9514893px" height="43.9688826px">
                    <path d="M48.8888242,31.4663758 C48.7802182,31.4890424 48.6605818,31.5141333 48.4295515,31.5623758 C48.6122182,31.0640727 48.768097,30.6386182 48.9930667,30.0248 C49.6802182,29.6557091 49.6741576,28.7237091 49.9850667,27.9222545 C50.4491879,26.7256485 51.0861576,25.595103 51.6653091,24.4443152 C51.8370667,24.1033455 52.0845818,23.8005576 52.2584,23.4604364 C53.1099152,21.7946182 53.9402182,20.1177697 54.7935515,18.4528 C55.6780364,16.727103 56.4894303,14.954497 57.5022788,13.3066182 C58.3933091,11.8565576 58.9405818,10.262497 59.7249455,8.77461818 C59.7895515,8.65207273 59.8405818,8.49086061 59.9461576,8.42625455 C60.7129455,7.95667879 60.8025212,7.10516364 61.2329455,6.29037576 C60.2987636,6.39886061 59.4791273,6.50964848 58.656097,6.58467879 C57.960703,6.64807273 57.2575515,6.6358303 56.5649455,6.7177697 C55.4394909,6.85098182 54.3217939,7.04989091 53.1965818,7.18564848 C52.8837333,7.22334545 52.552703,7.0928 52.2353697,7.11510303 C51.5136727,7.1657697 50.7948848,7.25970909 50.0757333,7.34298182 C49.4358545,7.41704242 48.7990061,7.54152727 48.1574303,7.57073939 C47.0283394,7.62213333 46.4339152,7.13861818 46.2700364,6.00504242 C46.1556121,5.2137697 46.1477333,4.40722424 46.0860364,3.60795152 C46.0585212,3.25013333 45.9472485,2.88492121 45.9916121,2.53801212 C46.1791273,1.06928485 47.3495515,0.449284848 48.7088242,1.13073939 C50.0158545,1.78613333 51.4302788,1.68298182 52.8129455,1.5497697 C56.628097,1.18189091 60.4370667,0.750133333 64.2499152,0.357163636 C64.9517333,0.284921212 65.6599758,0.268557576 66.3657939,0.240193939 C67.8260364,0.181648485 69.2865212,0.121648485 70.7473697,0.0827393939 C71.7250667,0.0566787879 72.7039758,0.0754666667 73.6817939,0.0535272727 C73.9737939,0.0469818182 74.2673697,-0.142836364 74.504097,0.23449697 C74.5453091,0.300193939 74.9443394,0.141406061 75.2157333,0.0775272727 C75.1688242,0.877648485 75.912097,0.572193939 76.2780364,0.600072727 C76.8266424,0.641890909 77.0422788,0.999224242 77.3276121,1.2337697 C77.4176727,1.15486061 77.5256727,0.98249697 77.6214303,0.989163636 C78.1194909,1.02370909 78.7072485,0.713648485 79.0844606,1.32213333 C79.0982788,1.34431515 79.3170667,1.23934545 79.5500364,1.15292121 C79.5176727,1.31001212 79.4750061,1.51692121 79.4217939,1.77498182 C79.8279758,1.97158788 80.1368242,1.79401212 80.2265212,1.11170909 C80.2765818,1.16916364 80.3266424,1.22649697 80.376703,1.28395152 C80.3586424,1.43510303 80.3405818,1.58625455 80.3168242,1.78516364 C80.4056727,1.79352727 80.5093091,1.83498182 80.5811879,1.80358788 C80.7335515,1.7368 80.8694303,1.63207273 80.9299152,1.59425455 C81.1981576,1.75292121 81.4744,1.95740606 81.7821576,2.08661818 C82.1017939,2.22092121 82.4088242,2.45122424 82.8163394,2.20637576 C82.9999758,2.09607273 83.3279758,2.07292121 83.3931879,2.49716364 C83.4184,2.66116364 83.7073697,2.76928485 83.7843394,2.94346667 C84.0728242,3.59667879 84.0270061,3.65401212 83.3354909,3.69752727 C83.236703,3.70370909 83.1388848,3.72686061 83.0157333,3.74613333 C82.992703,3.92492121 82.9707636,4.09437576 82.9382788,4.34661818 C82.8251879,4.16492121 82.7559758,4.0537697 82.6495515,3.88286061 C82.1299152,4.48904242 81.4297939,4.40043636 80.7565818,4.44237576 C80.2380364,4.47473939 79.7224,4.55316364 79.2042182,4.59716364 C79.1057939,4.60552727 79.0017939,4.54952727 78.900703,4.52225455 C78.7704,4.48710303 78.6344,4.40625455 78.5111273,4.42249697 C77.7573091,4.52201212 77.008703,4.66092121 76.2541576,4.75267879 C75.5576727,4.83728485 74.856703,4.89219394 74.156097,4.93061818 C73.9923394,4.93958788 73.8220364,4.82916364 73.6033697,4.75655758 C73.1191273,5.06589091 72.5051879,5.08613333 71.8754909,5.02334545 C71.6952485,5.00540606 71.5096727,4.97267879 71.3330667,4.99607273 C70.1803394,5.14904242 69.028097,5.30770909 67.8796121,5.48892121 C67.7539152,5.5088 67.6163394,5.66370909 67.5464,5.79025455 C67.2248242,6.37207273 66.9125818,6.95995152 66.6222788,7.55801212 C66.420097,7.97449697 66.2748848,8.41849697 66.0769455,8.83740606 C64.8758545,11.3797091 63.6742788,13.9220121 62.4535515,16.4549818 C62.2256727,16.9275879 61.8862788,17.3455273 61.6402182,17.8108606 C61.2937939,18.4660121 61.0022788,19.1502545 60.6591273,19.8074667 C59.8008242,21.4512242 58.9479758,23.098497 58.0500364,24.7206788 C57.5780364,25.5732848 57.0070061,26.3706182 56.4991273,27.2041939 C56.3025212,27.5267394 56.1653091,27.8848 55.9871273,28.2193455 C55.1254303,29.8363152 54.2741576,31.4592242 53.3876121,33.0626182 C52.9719758,33.8143758 52.4685818,34.5171636 52.0371879,35.2608 C51.7990061,35.6712242 51.6410667,36.1272242 51.4217939,36.5497697 C51.2471273,36.886497 51.0402182,37.2072242 50.8365818,37.5280727 C50.6969455,37.7481939 50.4648242,37.9368 50.4016727,38.1735273 C50.2049455,38.9098909 49.7815515,39.4578909 49.1821576,39.9016485 C49.0986424,39.9635879 49.0624,40.1128 49.0391273,40.2286788 C48.876703,41.0358303 48.4300364,41.6451636 47.8204606,42.1889212 C47.3728242,42.5881939 47.0267636,43.0997091 46.6204606,43.5477091 C46.4889455,43.6928 46.3104,43.795103 46.0861576,43.9689212 C45.9811879,43.5848 45.9101576,43.3250424 45.8285818,43.0263758 C45.6300364,43.1114667 45.476703,43.1771636 45.2202182,43.2869818 C45.5577939,42.3715879 45.4187636,41.462497 45.9443394,40.663103 C46.3642182,40.0244364 46.6674909,39.2800727 46.8751273,38.5411636 C47.016097,38.0398303 46.9020364,37.4667394 46.9020364,36.9132848 C46.7427636,37.1357091 46.5757333,37.3688 46.4088242,37.6018909 C46.3536727,37.5688 46.2985212,37.5358303 46.2433697,37.5027394 C46.8193697,36.4251636 47.3953697,35.3475879 47.9713697,34.2701333 C47.9436121,34.2457697 47.9158545,34.2215273 47.888097,34.1972848 L47.4751273,34.4792242 L47.3889455,34.4090424 C47.8851879,33.4353455 48.3814303,32.4617697 48.8888242,31.4663758" id="Fill-1"></path>
                    <path d="M22.8802545,7.46372121 C22.7476485,7.34929697 22.7323758,7.32529697 22.7194061,7.32638788 C21.5423152,7.43123636 20.3646182,7.53099394 19.1897091,7.65669091 C19.0871636,7.6676 19.0030424,7.84978182 18.8775879,7.9885697 C20.2258303,7.6236 21.5720121,7.93814545 22.8802545,7.46372121 M9.01261818,21.4427515 C7.40049697,24.2449333 6.14546667,28.1443273 5.54910303,32.285903 C11.5495879,26.3268727 15.6809818,19.1280848 20.3048606,12.0866303 C19.3155273,12.2025091 18.4846182,12.2935394 17.6554061,12.3981455 C14.072497,12.8502667 10.4899515,13.3046909 6.9077697,13.7625091 C6.26086061,13.8451758 5.75201212,13.2695394 5.96292121,12.6105091 C6.24061818,11.7433576 6.56910303,10.8914788 6.90073939,10.0427515 C7.09637576,9.54214545 7.31261818,9.0445697 7.57843636,8.57923636 C7.6677697,8.42287273 7.93492121,8.2946303 8.12813333,8.28396364 C8.88922424,8.24190303 9.65346667,8.26153939 10.4160121,8.23972121 C11.3950424,8.21172121 12.3749212,8.18517576 13.3514061,8.11584242 C13.6418303,8.09523636 13.9181939,7.86881212 14.2082545,7.85014545 C14.6583152,7.82117576 15.1145576,7.88941818 15.5922545,7.81705455 C15.4866788,7.7805697 15.381103,7.74396364 15.2167394,7.68711515 C15.5637697,7.59196364 15.8312848,7.2885697 16.1452242,7.73596364 C16.2190424,7.84117576 16.6003758,7.74250909 16.8381939,7.71826667 C17.3629212,7.66469091 17.8857091,7.59281212 18.4104364,7.53899394 C19.8116485,7.39535758 21.2149212,7.26978182 22.6129818,7.10093333 C22.7826788,7.08044848 23.0035273,6.86735758 23.0670424,6.69438788 C23.3094667,6.03450909 23.5162545,5.35972121 23.6996485,4.6805697 C23.8714061,4.04469091 24.3413455,3.77802424 24.8312848,4.20711515 C25.4874061,4.78202424 26.0591636,5.46638788 26.5943152,6.15996364 C26.8288606,6.46384242 26.9920121,6.64493333 27.4052242,6.58796364 C27.836497,6.52869091 28.2821939,6.57475152 28.7425576,6.63826667 C28.2630424,6.67317576 27.7834061,6.70808485 27.2377091,6.74772121 C27.3541939,7.20881212 27.4509212,7.59208485 27.5448606,7.96444848 C27.997103,7.88553939 28.3446182,7.23172121 28.9852242,7.71923636 C28.6333455,7.77632727 28.3634061,7.82008485 28.0934667,7.86384242 C28.0979515,7.93984242 28.1024364,8.01584242 28.1070424,8.09184242 C29.9003758,7.6586303 31.7100727,8.02323636 33.5548,7.74844848 C33.5677697,7.95075152 33.5769818,8.09487273 33.5878909,8.26626667 L34.5426788,8.26626667 C34.5695879,8.30966061 34.5966182,8.35305455 34.6236485,8.39644848 C34.2767394,8.62966061 33.9579515,8.95572121 33.5755273,9.07172121 C33.1356485,9.20517576 32.6392848,9.15305455 32.1675273,9.18153939 C32.1723758,9.23317576 32.177103,9.28481212 32.1818303,9.3365697 C32.6858303,9.31232727 33.1898303,9.28808485 33.6938303,9.26396364 C33.7055879,9.29426667 33.7173455,9.32469091 33.729103,9.35511515 C33.5712848,9.42747879 33.4192848,9.51875152 33.2548,9.5685697 C32.6661939,9.74687273 32.0733455,9.91123636 31.4819515,10.0803273 C31.4629212,10.0857818 31.4407394,10.0920848 31.4226788,10.0876 C30.721103,9.91269091 30.0743152,10.3866303 29.3688606,10.2621455 C29.240497,10.2393576 29.0769818,10.4152364 28.9297091,10.4994788 C28.9440121,10.5764485 28.9581939,10.653297 28.972497,10.7302667 C28.6360121,10.6056606 28.2995273,10.4809333 27.7887394,10.2916 C28.0111636,10.6313576 28.1402545,10.8284485 28.2933455,11.0622667 C27.8682545,11.1524485 27.3958909,11.2525697 26.8791636,11.3620242 C26.7859515,11.2775394 26.6619515,11.1654182 26.4800121,11.0006909 C26.0344364,11.6817818 25.6083758,12.3216606 25.1939515,12.9690545 C24.5195273,14.0223879 23.8259515,15.0648121 23.1901939,16.141297 C22.5441333,17.2354788 21.9903152,18.3845697 21.3348,19.4726909 C20.9015879,20.1918424 20.3603758,20.845903 19.8668,21.5286909 C19.8314061,21.5776606 19.7855879,21.6196 19.7533455,21.6702667 C19.2544364,22.4542667 18.7677697,23.2463879 18.2546788,24.0209333 C17.9883758,24.4229939 17.6835273,24.8005697 17.3817091,25.1775394 C17.1803758,25.429297 16.9214667,25.6391152 16.7431636,25.9044485 C15.3868,27.9221455 13.8460727,29.7937818 12.2739515,31.6434788 C11.4312848,32.6348727 10.6597697,33.6868727 9.81746667,34.6786303 C9.51673939,35.0326909 9.09722424,35.2842061 8.74073939,35.5928121 C8.2597697,36.009297 7.78728485,36.4354788 7.24061818,36.9200848 C7.67746667,36.7380242 8.05940606,36.5788727 8.44134545,36.4196 C7.39758788,37.8017818 4.66328485,38.3610545 3.21843636,37.6312364 C2.84849697,37.4443273 2.51867879,37.1794788 2.15952727,36.9691758 C1.72958788,36.717297 1.29358788,36.4743879 0.849830303,36.2479636 C0.373709091,36.0050545 -0.0510181818,35.1108727 0.00498181818,34.5551152 C0.311769697,31.5117212 1.05358788,28.5580242 1.90255758,25.6342667 C2.20389091,24.5969333 2.73152727,23.6220242 3.1908,22.6348727 C3.70958788,21.5198424 4.25649697,20.4171758 4.82086061,19.3244485 C4.9077697,19.1562061 5.1538303,18.965903 5.32643636,18.9656606 C5.8317697,18.965297 6.35334545,18.9683273 6.78510303,19.333297 C7.04510303,19.5531758 7.36340606,19.7048121 7.62122424,19.9269939 C7.93637576,20.1985091 8.22304242,20.5050545 8.50789091,20.8096606 C8.67673939,20.9902667 8.81819394,21.1965697 9.01261818,21.4427515" id="Fill-3"></path>
                    <path d="M36.5251636,15.3121091 C32.5572848,17.7770788 29.1885576,25.7740485 30.2153455,30.2901697 C31.1701333,30.2161091 32.6474667,29.6048364 33.8732848,28.6871394 C36.0492848,27.0582909 37.819103,25.0298061 39.418497,22.8522303 C40.7163152,21.0854424 41.9792242,19.2925939 43.2323152,17.4935636 C44.0648,16.2981697 44.7822545,15.0356242 45.1136485,13.5962303 C45.4160727,12.2830182 45.1095273,11.9535636 43.746497,12.0894424 C43.7063758,12.0934424 43.666497,12.1001091 43.626497,12.1058061 C41.7368,12.3756242 40.3603152,13.5350182 39.1279515,14.8458061 C38.599103,15.4082303 38.2198303,16.1054424 37.4798303,16.4471394 C37.4575273,16.4574424 37.4183758,16.431503 37.3817697,16.4209576 C37.3947394,16.2613212 37.4077091,16.1015636 37.4226182,15.9180485 C37.1974061,15.9676242 37.0269818,16.0052 36.8404364,16.0462909 C36.7291636,15.7872606 36.6279515,15.5516242 36.5251636,15.3121091 M28.0377697,19.2332 C27.6315879,18.7763515 28.3658909,18.5117455 28.4988606,18.1038667 C28.6994667,17.4884727 29.1211636,16.9426545 29.4679515,16.3790182 C29.5746182,16.2054424 29.7393455,16.0661697 29.8856485,15.9191394 C29.9406788,15.8637455 30.0374061,15.8454424 30.0829818,15.7856848 C30.4580121,15.294897 30.7926788,14.7689576 31.2039515,14.311503 C31.6497697,13.815503 32.1462545,13.3599879 32.6553455,12.927503 C33.0877091,12.5602303 33.5320727,12.1730788 34.0366788,11.9319879 C35.0901333,11.4287152 36.175103,11.0563515 37.403103,11.3310182 C37.7848,11.4163515 38.1648,11.098897 38.1245576,10.7304121 C38.4274667,10.5732 38.7439515,10.5140485 38.854497,10.3307758 C39.1295273,9.87501818 39.4251636,9.7692 39.9497697,10.1539273 C39.8814061,9.90083636 39.8320727,9.71841212 39.7633455,9.46386667 C39.9415273,9.53659394 40.0537697,9.58241212 40.1380121,9.61683636 C40.2481939,9.46774545 40.3206788,9.26192727 40.4272242,9.24253333 C41.1947394,9.10277576 42.0078303,9.11247273 42.7320727,8.86071515 C43.8142545,8.48471515 44.7017697,8.92156364 45.6032242,9.32362424 C46.1563152,9.57029091 46.6675879,9.93053333 47.1578909,10.2933212 C48.1406788,11.0205939 49.0955879,11.7854424 50.0634667,12.5329576 C50.7794667,13.0859273 50.9300121,13.8827758 50.7422545,14.6596242 C50.4654061,15.8053212 50.1198303,16.9559879 49.6239515,18.0208364 C49.1576485,19.0219273 48.4483152,19.9082303 47.8675879,20.8582909 C47.6768,21.1704121 47.586497,21.5449576 47.3908606,21.8532 C47.1759515,22.1919879 46.8821333,22.4796242 46.6408,22.8030182 C45.9368,23.7462909 45.2726788,24.7210788 44.5349818,25.6369576 C43.7528,26.6082303 42.8731636,27.5010788 42.0928,28.4736848 C41.1793455,29.6121091 40.0809212,30.5396242 38.9324364,31.4150182 C38.4673455,31.7695636 37.9491636,32.0542909 37.458497,32.3759879 C37.1454061,32.5813212 36.8386182,32.7962303 36.5280727,33.0073818 C36.5155879,32.9930788 36.4489212,32.9164727 36.3317091,32.7819273 C36.2725576,33.0504121 36.2314667,33.2364727 36.2009212,33.3750182 C35.2491636,33.6285939 34.3378909,33.8576848 33.435103,34.1161091 C32.659103,34.3382909 31.9010424,34.3647152 31.0963152,34.2125939 C29.4835879,33.9077455 28.1040727,33.1864121 26.9248,32.0745333 C26.7432242,31.9032606 26.7363152,31.5596242 26.5936485,31.3296848 C26.5023758,31.1825333 26.3102545,31.0979273 26.1092848,31.0858061 C25.8914667,30.7382909 25.6873455,30.3812 25.4524364,30.0456848 C25.1280727,29.5822909 24.9387394,29.1112606 25.0560727,28.5192606 C25.1200727,28.1961091 25.0552242,27.8425333 25.0199515,27.5055636 C24.9655273,26.9861697 24.8392242,26.5416848 25.2589818,26.0094424 C25.6033455,25.5727152 25.5732848,24.8404727 25.7012848,24.2745333 C25.7154667,24.4316242 25.7340121,24.6382909 25.7626182,24.9559879 C26.0466182,24.0325939 26.2963152,23.2210788 26.5458909,22.4096848 C26.487103,22.3892 26.4284364,22.3685939 26.3696485,22.3481091 C26.1961939,22.8330788 26.0227394,23.3180485 25.8491636,23.8030182 C25.7940121,23.7855636 25.7388606,23.7682303 25.6835879,23.7507758 C25.9252848,22.9805939 26.1668606,22.2104121 26.4681939,21.2496848 C26.6001939,21.6254424 26.4588606,22.1123515 26.9429818,21.7661697 C26.8880727,21.6918667 26.7422545,21.5586545 26.7651636,21.5157455 C27.1572848,20.7830182 27.5703758,20.0614424 28.0377697,19.2332" id="Fill-5"></path>
                </g>
            </g>
        </g>
    </g>

    <g class="sprite" id="arrow-left" width="41.0121933px" height="41.0121933px" viewBox="0 0 41.0121933 41.0121933" version="1.1" xmlns="http://www.w3.org/2000/svg" xmlns:xlink="http://www.w3.org/1999/xlink">
    <title>Path Copy</title>
        <g id="Page-1" stroke="none" stroke-width="1" fill="none" fill-rule="evenodd">
            <g id="jot-ecomm-website-home" transform="translate(-31.7868, -542.4939)" stroke="#000000" stroke-width="2">
                <g id="Carousel-/-Hero" transform="translate(33, 201.3897)">
                    <polyline id="Path-Copy" transform="translate(20, 361.6103) scale(-1, 1) rotate(-45) translate(-20, -361.6103)" points="34 347.610287 34 375.610287 6 375.610287"></polyline>
                </g>
            </g>
        </g>
    </g>

    <g class="sprite" id="arrow-right" width="41.0121933px" height="41.0121933px" viewBox="0 0 41.0121933 41.0121933" version="1.1" xmlns="http://www.w3.org/2000/svg" xmlns:xlink="http://www.w3.org/1999/xlink">
    <title>Path</title>
        <g id="Page-1" stroke="none" stroke-width="1" fill="none" fill-rule="evenodd">
            <g id="jot-ecomm-website-home" transform="translate(-1527.201, -542.4939)" stroke="#000000" stroke-width="2">
                <g id="Carousel-/-Hero" transform="translate(33, 201.3897)">
                    <polyline id="Path" transform="translate(1514, 361.6103) rotate(-45) translate(-1514, -361.6103)" points="1528 347.610287 1528 375.610287 1500 375.610287"></polyline>
                </g>
            </g>
        </g>
    </g>

    <g class="sprite" id="triangle" width="308.262695px" height="324px" viewBox="0 0 308.262695 324" version="1.1" xmlns="http://www.w3.org/2000/svg" xmlns:xlink="http://www.w3.org/1999/xlink">
    <title>Rectangle</title>
        <g id="Page-1" stroke="none" stroke-width="1" fill="none" fill-rule="evenodd">
            <g id="jot-ecomm-website-home" transform="translate(-80, -1544)" fill="#FFC159">
                <g id="Jot-Rewards" transform="translate(80, 1544)">
                    <polygon id="Rectangle" points="0 0 308.262695 0 0 324"></polygon>
                </g>
            </g>
        </g>
    </g>

    <g class="sprite" id="shipping" width="64px" height="64px" viewBox="0 0 64 64" version="1.1" xmlns="http://www.w3.org/2000/svg" xmlns:xlink="http://www.w3.org/1999/xlink">
    <title>Group 5</title>
        <g id="Page-1" stroke="none" stroke-width="1" fill="none" fill-rule="evenodd">
            <g id="jot-ecomm-website-home" transform="translate(-713, -1586)">
                <g id="Jot-Rewards" transform="translate(80, 1544)">
                    <g id="Group-5" transform="translate(633, 42)">
                        <circle id="Oval" fill="#FFC159" cx="32" cy="32" r="32"></circle>
                        <g id="truck-fast-solid" transform="translate(17, 20)" fill="#000000" fill-rule="nonzero">
                            <path d="M2.96052632,2.22039474 C2.96052632,0.994089227 3.95461554,0 5.18092105,0 L17.0230263,0 C18.2488692,0 19.2434211,0.994089227 19.2434211,2.22039474 L19.2434211,11.8421053 L28.125,11.8421053 L28.125,16.2828947 C28.9437706,16.2828947 29.6052632,16.9443873 29.6052632,17.7631579 C29.6052632,18.5819285 28.9437706,19.2434211 28.125,19.2434211 L26.6447368,19.2434211 C26.6447368,21.6951069 24.6556332,23.6842105 22.2039474,23.6842105 C19.7106291,23.6842105 17.7631579,21.6951069 17.7631579,19.2434211 L11.8421053,19.2434211 C11.8421053,21.6951069 9.85300164,23.6842105 7.40131579,23.6842105 C4.90799753,23.6842105 2.96052632,21.6951069 2.96052632,19.2434211 L2.96052632,13.3223684 L9.62171053,13.3223684 C10.0287829,13.3223684 10.3618421,12.9893092 10.3618421,12.5822368 C10.3618421,12.1751645 10.0287829,11.8421053 9.62171053,11.8421053 L0.740131579,11.8421053 C0.331393914,11.8421053 0,11.5090461 0,11.1019737 C0,10.6949013 0.331393914,10.3618421 0.740131579,10.3618421 L11.1019737,10.3618421 C11.5090461,10.3618421 11.8421053,10.0287829 11.8421053,9.62171053 C11.8421053,9.21463816 11.5090461,8.88157895 11.1019737,8.88157895 L2.22039474,8.88157895 C1.81147204,8.88157895 1.48026316,8.54851974 1.48026316,8.14144737 C1.48026316,7.734375 1.81147204,7.40131579 2.22039474,7.40131579 L12.5822368,7.40131579 C12.9893092,7.40131579 13.3223684,7.06825658 13.3223684,6.66118421 C13.3223684,6.25411184 12.9893092,5.92105263 12.5822368,5.92105263 L0.740131579,5.92105263 C0.331393914,5.92105263 0,5.58799342 0,5.18092105 C0,4.77384868 0.331393914,4.44078947 0.740131579,4.44078947 L2.96052632,4.44078947 L2.96052632,2.22039474 Z M7.40131579,21.4638158 C8.62715872,21.4638158 9.62171053,20.469264 9.62171053,19.2434211 C9.62171053,18.0175781 8.62715872,17.0230263 7.40131579,17.0230263 C6.17547286,17.0230263 5.18092105,18.0175781 5.18092105,19.2434211 C5.18092105,20.469264 6.17547286,21.4638158 7.40131579,21.4638158 Z M22.2039474,17.0230263 C20.9781044,17.0230263 19.9835526,18.0175781 19.9835526,19.2434211 C19.9835526,20.469264 20.9781044,21.4638158 22.2039474,21.4638158 C23.4297903,21.4638158 24.4243421,20.469264 24.4243421,19.2434211 C24.4243421,18.0175781 23.4297903,17.0230263 22.2039474,17.0230263 Z M21.588713,7.40131579 L18.5032895,7.40131579 L18.5032895,4.44078947 L21.588713,4.44078947 C22.3751028,4.44078947 23.0874794,4.75071957 23.6842105,5.30581826 L27.2599712,8.88157895 C27.8150699,9.43667763 28.125,10.1906867 28.125,10.9770765 L28.125,13.3223684 L25.1644737,13.3223684 L25.1644737,10.9770765 L21.588713,7.40131579 Z" id="Shape"></path>
                        </g>
                    </g>
                </g>
            </g>
        </g>
    </g>

    <g class="sprite" id="rewards" width="64px" height="64px" viewBox="0 0 64 64" version="1.1" xmlns="http://www.w3.org/2000/svg" xmlns:xlink="http://www.w3.org/1999/xlink">
    <title>Group 6</title>
        <g id="Page-1" stroke="none" stroke-width="1" fill="none" fill-rule="evenodd">
            <g id="jot-ecomm-website-home" transform="translate(-713, -1674)">
                <g id="Jot-Rewards" transform="translate(80, 1544)">
                    <g id="Group-6" transform="translate(633, 130)">
                        <circle id="Oval-Copy" fill="#FFC159" cx="32" cy="32" r="32"></circle>
                        <g id="gift-solid" transform="translate(20, 20)" fill="#000000" fill-rule="nonzero">
                            <path d="M7.125,0 L7.228125,0 C8.7234375,0 10.1109375,0.79265625 10.8703125,2.08359375 L12,4.0059375 L13.1296875,2.08359375 C13.8890625,0.79265625 15.2765625,0 16.771875,0 L16.875,0 C19.153125,0 21,1.846875 21,4.125 C21,4.8 20.8359375,5.3953125 20.55,6 L22.5,6 C23.3296875,6 24,6.6703125 24,7.5 L24,10.5 C24,11.3296875 23.3296875,12 22.5,12 L1.5,12 C0.67171875,12 0,11.3296875 0,10.5 L0,7.5 C0,6.6703125 0.67171875,6 1.5,6 L3.45,6 C3.1621875,5.3953125 3,4.8 3,4.125 C3,1.846875 4.846875,0 7.125,0 Z M8.9296875,3.2240625 C8.5734375,2.62078125 7.9265625,2.25 7.228125,2.25 L7.125,2.25 C6.0890625,2.25 5.25,3.08953125 5.25,4.125 C5.25,5.1609375 6.0890625,6 7.125,6 L10.5609375,6 L8.9296875,3.2240625 Z M16.875,2.25 L16.771875,2.25 C16.0734375,2.25 15.4265625,2.62078125 15.0703125,3.2240625 L13.4390625,6 L16.875,6 C17.9109375,6 18.75,5.1609375 18.75,4.125 C18.75,3.08953125 17.9109375,2.25 16.875,2.25 L16.875,2.25 Z M1.5,13.5 L10.5,13.5 L10.5,24 L3.75,24 C2.50734375,24 1.5,22.9921875 1.5,21.75 L1.5,13.5 Z M13.5,24 L13.5,13.5 L22.5,13.5 L22.5,21.75 C22.5,22.9921875 21.4921875,24 20.25,24 L13.5,24 Z" id="Shape"></path>
                        </g>
                    </g>
                </g>
            </g>
        </g>
    </g>

    <g class="sprite" id="access" width="64px" height="64px" viewBox="0 0 64 64" version="1.1" xmlns="http://www.w3.org/2000/svg" xmlns:xlink="http://www.w3.org/1999/xlink">
    <title>Group 8</title>
        <g id="Page-1" stroke="none" stroke-width="1" fill="none" fill-rule="evenodd">
            <g id="jot-ecomm-website-home" transform="translate(-713, -1762)">
                <g id="Jot-Rewards" transform="translate(80, 1544)">
                    <g id="Group-8" transform="translate(633, 218)">
                        <circle id="Oval-Copy-2" fill="#FFC159" cx="32" cy="32" r="32"></circle>
                        <g id="calendar-check-solid" transform="translate(22, 20)" fill="#000000" fill-rule="nonzero">
                            <path d="M7.63888889,1.52777778 L7.63888889,3.05555556 L13.75,3.05555556 L13.75,1.52777778 C13.75,0.684157986 14.4327257,0 15.2777778,0 C16.1228299,0 16.8055556,0.684157986 16.8055556,1.52777778 L16.8055556,3.05555556 L19.0972222,3.05555556 C20.3624132,3.05555556 21.3888889,4.08155382 21.3888889,5.34722222 L21.3888889,7.63888889 L0,7.63888889 L0,5.34722222 C0,4.08155382 1.02599826,3.05555556 2.29166667,3.05555556 L4.58333333,3.05555556 L4.58333333,1.52777778 C4.58333333,0.684157986 5.26605903,0 6.11111111,0 C6.95616319,0 7.63888889,0.684157986 7.63888889,1.52777778 Z M0,9.16666667 L21.3888889,9.16666667 L21.3888889,22.1527778 C21.3888889,23.4179688 20.3624132,24.4444444 19.0972222,24.4444444 L2.29166667,24.4444444 C1.02599826,24.4444444 0,23.4179688 0,22.1527778 L0,9.16666667 Z M15.6644965,14.5186632 C16.1514757,14.1128472 16.1514757,13.3871528 15.6644965,12.9383681 C15.2586806,12.4943576 14.5329861,12.4943576 14.0842014,12.9383681 L9.54861111,17.4787326 L7.26171875,15.2300347 C6.85590278,14.7860243 6.13020833,14.7860243 5.68142361,15.2300347 C5.23741319,15.6788194 5.23741319,16.4045139 5.68142361,16.8103299 L8.73697917,19.8658854 C9.18576389,20.3528646 9.91145833,20.3528646 10.3172743,19.8658854 L15.6644965,14.5186632 Z" id="Shape"></path>
                        </g>
                    </g>
                </g>
            </g>
        </g>
    </g>

    <g class="sprite" id="pointer-right"  width="28px" height="24px" viewBox="0 0 28 24" version="1.1" xmlns="http://www.w3.org/2000/svg" xmlns:xlink="http://www.w3.org/1999/xlink">
    <title>Path</title>
        <g id="Page-1" stroke="none" stroke-width="1" fill="none" fill-rule="evenodd">
            <g id="hover-states" transform="translate(-198, -2154)" fill="#FFFFFF" fill-rule="nonzero">
                <g id="Hover" transform="translate(80, 1997)">
                    <path d="M134.536097,157.41355 L145.535164,167.913642 C145.832014,168.196832 146,168.589273 146,168.999902 C146,169.41053 145.832014,169.802409 145.535164,170.086161 L134.536097,180.586254 C133.936523,181.156571 132.987479,181.135071 132.415027,180.535472 C131.842826,179.941717 131.864324,178.988583 132.465804,178.414203 L140.758851,170.501634 L119.500498,170.501634 C118.672443,170.501634 118,169.829128 118,169.000995 C118,168.172863 118.672443,167.501607 119.500498,167.501607 L140.754945,167.501607 L132.461898,159.589038 C131.861324,159.013564 131.842576,158.06043 132.411278,157.4648 C132.986229,156.864795 133.879903,156.843545 134.536097,157.41355 Z" id="Path"></path>
                </g>
            </g>
        </g>
    </g>

        <g class="sprite" id="pointer-right-lg" width="35px" height="30px" viewBox="0 0 35 30" version="1.1" xmlns="http://www.w3.org/2000/svg" xmlns:xlink="http://www.w3.org/1999/xlink">
    <title>Path</title>
        <g id="Page-1" stroke="none" stroke-width="1" fill="none" fill-rule="evenodd">
            <g id="hover-states" transform="translate(-424, -1373)" fill="#FFFFFF" fill-rule="nonzero">
                <g id="Hover" transform="translate(80, 954)">
                    <path d="M364.670122,419.516937 L378.418956,432.642053 C378.790018,432.99604 379,433.486591 379,433.999877 C379,434.513163 378.790018,435.003011 378.418956,435.357701 L364.670122,448.482817 C363.920654,449.195714 362.734348,449.168839 362.018784,448.41934 C361.303532,447.677146 361.330405,446.485729 362.082255,445.767754 L372.448564,435.877042 L345.875622,435.877042 C344.840554,435.877042 344,435.03641 344,434.001244 C344,432.966079 344.840554,432.127009 345.875622,432.127009 L372.443681,432.127009 L362.077373,422.236297 C361.326655,421.516955 361.30322,420.325538 362.014097,419.581 C362.732786,418.830994 363.849879,418.804431 364.670122,419.516937 Z" id="Path"></path>
                </g>
            </g>
        </g>
    </g>
</svg>